<svg width="96" height="52" viewBox="0 0 96 52" fill="none" xmlns="http://www.w3.org/2000/svg">
<path d="M0 3.17596C0 1.69992 1.19657 0.503357 2.67261 0.503357H28.2227V51.4967H2.67261C1.19657 51.4967 0 50.3001 0 48.8241V3.17596Z" fill="#7EBA00"/>
<path d="M30.2539 0.503357H93.3274C94.8034 0.503357 96 1.69992 96 3.17596V48.8241C96 50.3001 94.8034 51.4967 93.3274 51.4967H30.2539V0.503357Z" fill="#006D33"/>
<path d="M19.726 38.4509C18.172 30.6074 18.877 24.8234 19.5102 22.6325C17.654 24.4729 14.615 26.9355 14.0279 33.4556C13.4408 39.9758 16.4597 46.7764 18.0425 49.3617C18.3187 48.5554 18.1576 46.718 18.0425 45.9C18.7331 47.0218 18.7044 49.2302 18.6036 50.1942L19.0785 50.6324C19.9994 49.6538 20.9296 44.5257 19.726 38.4509Z" fill="white"/>
<path d="M38.7091 10.98V8.75797C38.7091 7.55393 38.6872 6.51408 38.6435 5.53991L38.6763 5.52896C39.0375 6.39368 39.5191 7.34596 39.957 8.13406L41.5331 10.98H43.2845V3.6025H41.7521V5.75882C41.7521 6.86435 41.7849 7.86041 41.8944 8.83459H41.8615C41.5331 8.00271 41.0953 7.08326 40.6575 6.30611L39.1251 3.6025H37.1767V10.98H38.7091Z" fill="white"/>
<path d="M46.3751 10.98V5.62747H44.7114V10.98H46.3751ZM45.5432 3.29602C45.0069 3.29602 44.6566 3.65723 44.6676 4.13885C44.6566 4.59857 45.0069 4.97073 45.5323 4.97073C46.0796 4.97073 46.4298 4.59857 46.4298 4.13885C46.4189 3.65723 46.0796 3.29602 45.5432 3.29602Z" fill="white"/>
<path d="M51.3819 5.62747L51.3271 6.26233H51.3053C51.0316 5.8245 50.5719 5.50707 49.8385 5.50707C48.525 5.50707 47.4086 6.60165 47.4086 8.32014C47.4086 9.86349 48.3499 10.9362 49.6743 10.9362C50.2873 10.9362 50.8018 10.6844 51.1192 10.2357H51.1411V10.5859C51.1411 11.571 50.5391 11.9979 49.751 11.9979C49.127 11.9979 48.536 11.79 48.1967 11.5929L47.8683 12.8517C48.3499 13.1253 49.0942 13.2676 49.7947 13.2676C50.5828 13.2676 51.3819 13.1144 51.9729 12.6109C52.575 12.0745 52.7829 11.2317 52.7829 10.2028V7.21461C52.7829 6.41557 52.8048 5.96679 52.8267 5.62747H51.3819ZM51.1192 8.59378C51.1192 8.73608 51.1082 8.91121 51.0644 9.03161C50.955 9.42566 50.6157 9.71025 50.1888 9.71025C49.4883 9.71025 49.0942 9.08634 49.0942 8.2873C49.0942 7.31312 49.5868 6.76584 50.1888 6.76584C50.6485 6.76584 50.9659 7.06137 51.0863 7.4992C51.1082 7.58677 51.1192 7.69623 51.1192 7.80569V8.59378Z" fill="white"/>
<path d="M58.8465 8.83459C58.8684 8.71419 58.9012 8.46243 58.9012 8.17784C58.9012 6.8534 58.2445 5.50707 56.515 5.50707C54.6542 5.50707 53.8114 7.00664 53.8114 8.36392C53.8114 10.0386 54.8513 11.0894 56.6683 11.0894C57.3907 11.0894 58.0584 10.98 58.6057 10.761L58.3868 9.63363C57.938 9.77593 57.4783 9.85255 56.9091 9.85255C56.1319 9.85255 55.4533 9.52417 55.3986 8.83459H58.8465ZM55.3876 7.69623C55.4314 7.24745 55.716 6.61259 56.4165 6.61259C57.1827 6.61259 57.3579 7.29123 57.3579 7.69623H55.3876Z" fill="white"/>
<path d="M59.9008 10.98H61.5645V8.26541C61.5645 8.13406 61.5755 8.00271 61.5974 7.89325C61.7068 7.3788 62.1228 7.05043 62.7357 7.05043C62.9218 7.05043 63.0641 7.07232 63.1845 7.09421V5.52896C63.0641 5.50707 62.9875 5.50707 62.8342 5.50707C62.3198 5.50707 61.6631 5.83544 61.3894 6.61259H61.3456L61.2909 5.62747H59.857C59.8789 6.0872 59.9008 6.60165 59.9008 7.38975V10.98Z" fill="white"/>
<path d="M65.7227 10.98V5.62747H64.0589V10.98H65.7227ZM64.8908 3.29602C64.3544 3.29602 64.0042 3.65723 64.0151 4.13885C64.0042 4.59857 64.3544 4.97073 64.8798 4.97073C65.4271 4.97073 65.7774 4.59857 65.7774 4.13885C65.7664 3.65723 65.4271 3.29602 64.8908 3.29602Z" fill="white"/>
<path d="M71.6051 10.98C71.5503 10.6844 71.5285 10.1919 71.5285 9.67741V7.81663C71.5285 6.55787 70.9593 5.50707 69.1751 5.50707C68.2009 5.50707 67.4676 5.76977 67.0954 5.97774L67.4019 7.05043C67.7522 6.83151 68.3323 6.64543 68.8796 6.64543C69.7005 6.64543 69.8537 7.05043 69.8537 7.33502V7.41164C67.9601 7.40069 66.7123 8.06838 66.7123 9.4585C66.7123 10.3123 67.3581 11.1004 68.4417 11.1004C69.0766 11.1004 69.6239 10.8705 69.9742 10.4436H70.007L70.1055 10.98H71.6051ZM69.9085 9.03161C69.9085 9.13013 69.8975 9.22864 69.8756 9.3162C69.7662 9.65552 69.4269 9.92917 69.0109 9.92917C68.6388 9.92917 68.3542 9.7212 68.3542 9.29431C68.3542 8.64851 69.0328 8.44054 69.9085 8.45149V9.03161Z" fill="white"/>
<path d="M36.8921 22.507C37.3081 22.7369 38.14 22.9558 38.9828 22.9558C41.0078 22.9558 41.96 21.905 41.96 20.6681C41.96 19.6283 41.3471 18.9496 40.0445 18.468C39.0922 18.1068 38.6763 17.8988 38.6763 17.4282C38.6763 17.0451 39.0266 16.7167 39.749 16.7167C40.4714 16.7167 40.9968 16.9247 41.2923 17.067L41.6645 15.7206C41.2267 15.5236 40.6137 15.3485 39.7818 15.3485C38.0414 15.3485 36.9906 16.3117 36.9906 17.5705C36.9906 18.6432 37.7897 19.3218 39.0156 19.7487C39.9022 20.0661 40.2525 20.3288 40.2525 20.7885C40.2525 21.2701 39.8475 21.5876 39.0813 21.5876C38.3698 21.5876 37.6802 21.3577 37.2315 21.1278L36.8921 22.507Z" fill="white"/>
<path d="M45.6583 17.3734C43.9399 17.3734 42.8015 18.479 42.8015 20.2084C42.8015 21.9378 44.0055 22.9667 45.5708 22.9667C47.0047 22.9667 48.3948 22.0692 48.3948 20.1099C48.3948 18.5009 47.3002 17.3734 45.6583 17.3734ZM45.6146 18.5556C46.3698 18.5556 46.6763 19.3656 46.6763 20.1646C46.6763 21.1278 46.2604 21.7736 45.6146 21.7736C44.9031 21.7736 44.52 21.0841 44.52 20.1646C44.52 19.3765 44.8155 18.5556 45.6146 18.5556Z" fill="white"/>
<path d="M48.7599 17.4938L50.7083 22.8463H52.372L54.3642 17.4938H52.6129L51.9233 19.9785C51.8029 20.4383 51.7153 20.8433 51.6277 21.2811H51.5949C51.5183 20.8542 51.4198 20.4273 51.2884 19.9785L50.566 17.4938H48.7599Z" fill="white"/>
<path d="M59.7016 20.701C59.7235 20.5806 59.7563 20.3288 59.7563 20.0442C59.7563 18.7198 59.0996 17.3734 57.3702 17.3734C55.5094 17.3734 54.6666 18.873 54.6666 20.2303C54.6666 21.905 55.7064 22.9558 57.5234 22.9558C58.2458 22.9558 58.9135 22.8463 59.4608 22.6274L59.2419 21.5C58.7931 21.6423 58.3334 21.7189 57.7642 21.7189C56.9871 21.7189 56.3084 21.3905 56.2537 20.701H59.7016ZM56.2427 19.5626C56.2865 19.1138 56.5711 18.479 57.2717 18.479C58.0379 18.479 58.213 19.1576 58.213 19.5626H56.2427Z" fill="white"/>
<path d="M60.7559 22.8463H62.4197V20.1318C62.4197 20.0004 62.4306 19.8691 62.4525 19.7596C62.562 19.2452 62.9779 18.9168 63.5909 18.9168C63.777 18.9168 63.9193 18.9387 64.0397 18.9606V17.3953C63.9193 17.3734 63.8426 17.3734 63.6894 17.3734C63.1749 17.3734 62.5182 17.7018 62.2445 18.479H62.2008L62.146 17.4938H60.7121C60.734 17.9536 60.7559 18.468 60.7559 19.2561V22.8463Z" fill="white"/>
<path d="M69.5571 20.701C69.579 20.5806 69.6118 20.3288 69.6118 20.0442C69.6118 18.7198 68.9551 17.3734 67.2256 17.3734C65.3649 17.3734 64.522 18.873 64.522 20.2303C64.522 21.905 65.5619 22.9558 67.3789 22.9558C68.1013 22.9558 68.769 22.8463 69.3163 22.6274L69.0974 21.5C68.6486 21.6423 68.1889 21.7189 67.6197 21.7189C66.8425 21.7189 66.1639 21.3905 66.1092 20.701H69.5571ZM66.0982 19.5626C66.142 19.1138 66.4266 18.479 67.1271 18.479C67.8933 18.479 68.0685 19.1576 68.0685 19.5626H66.0982Z" fill="white"/>
<path d="M72.2752 22.8463V17.4938H70.6114V22.8463H72.2752ZM71.4433 15.1624C70.9069 15.1624 70.5567 15.5236 70.5676 16.0052C70.5567 16.4649 70.9069 16.8371 71.4323 16.8371C71.9796 16.8371 72.3299 16.4649 72.3299 16.0052C72.3189 15.5236 71.9796 15.1624 71.4433 15.1624Z" fill="white"/>
<path d="M77.2819 17.4938L77.2272 18.1287H77.2053C76.9317 17.6909 76.4719 17.3734 75.7386 17.3734C74.4251 17.3734 73.3086 18.468 73.3086 20.1865C73.3086 21.7299 74.2499 22.8025 75.5744 22.8025C76.1873 22.8025 76.7018 22.5508 77.0192 22.102H77.0411V22.4523C77.0411 23.4374 76.4391 23.8643 75.651 23.8643C75.0271 23.8643 74.436 23.6563 74.0967 23.4593L73.7683 24.7181C74.2499 24.9917 74.9943 25.134 75.6948 25.134C76.4829 25.134 77.2819 24.9808 77.873 24.4773C78.475 23.9409 78.683 23.0981 78.683 22.0692V19.081C78.683 18.2819 78.7049 17.8332 78.7268 17.4938H77.2819ZM77.0192 20.4602C77.0192 20.6024 77.0083 20.7776 76.9645 20.898C76.855 21.292 76.5157 21.5766 76.0888 21.5766C75.3883 21.5766 74.9943 20.9527 74.9943 20.1537C74.9943 19.1795 75.4868 18.6322 76.0888 18.6322C76.5486 18.6322 76.866 18.9277 76.9864 19.3656C77.0083 19.4531 77.0192 19.5626 77.0192 19.6721V20.4602Z" fill="white"/>
<path d="M80.0179 22.8463H81.6817V19.7596C81.6817 19.6064 81.7036 19.4422 81.7474 19.3437C81.8568 19.0372 82.1305 18.7198 82.5902 18.7198C83.1922 18.7198 83.433 19.1904 83.433 19.88V22.8463H85.0968V19.6721C85.0968 18.0959 84.2759 17.3734 83.1813 17.3734C82.2947 17.3734 81.7474 17.8879 81.5285 18.2272H81.4956L81.419 17.4938H79.9742C79.9961 17.9645 80.0179 18.5337 80.0179 19.2014V22.8463Z" fill="white"/>
<path d="M37.1767 27.3352V34.7127H38.8514V27.3352H37.1767Z" fill="white"/>
<path d="M40.2753 34.7127H41.9391V31.626C41.9391 31.4727 41.961 31.3086 42.0048 31.2101C42.1142 30.9036 42.3879 30.5861 42.8476 30.5861C43.4496 30.5861 43.6904 31.0568 43.6904 31.7464V34.7127H45.3542V31.5384C45.3542 29.9622 44.5332 29.2398 43.4387 29.2398C42.552 29.2398 42.0048 29.7543 41.7858 30.0936H41.753L41.6764 29.3602H40.2315C40.2534 29.8309 40.2753 30.4001 40.2753 31.0678V34.7127Z" fill="white"/>
<path d="M45.9166 29.3602L47.8649 34.7127H49.5287L51.5208 29.3602H49.7695L49.0799 31.8449C48.9595 32.3046 48.872 32.7096 48.7844 33.1475H48.7516C48.6749 32.7206 48.5764 32.2937 48.4451 31.8449L47.7226 29.3602H45.9166Z" fill="white"/>
<path d="M56.8583 32.5673C56.8802 32.4469 56.913 32.1952 56.913 31.9106C56.913 30.5861 56.2563 29.2398 54.5268 29.2398C52.666 29.2398 51.8232 30.7394 51.8232 32.0967C51.8232 33.7714 52.8631 34.8222 54.6801 34.8222C55.4025 34.8222 56.0702 34.7127 56.6175 34.4938L56.3986 33.3664C55.9498 33.5087 55.4901 33.5853 54.9209 33.5853C54.1437 33.5853 53.4651 33.2569 53.4104 32.5673H56.8583ZM53.3994 31.429C53.4432 30.9802 53.7278 30.3453 54.4283 30.3453C55.1945 30.3453 55.3696 31.024 55.3696 31.429H53.3994Z" fill="white"/>
<path d="M57.6061 34.45C58.0111 34.6689 58.635 34.8222 59.3355 34.8222C60.8679 34.8222 61.656 34.0888 61.656 33.0927C61.6451 32.3046 61.2182 31.7902 60.2002 31.4399C59.5435 31.2101 59.3355 31.0787 59.3355 30.827C59.3355 30.5533 59.5654 30.3891 59.9704 30.3891C60.4301 30.3891 60.8898 30.5643 61.1306 30.6956L61.4262 29.5463C61.0978 29.3821 60.5396 29.2398 59.9157 29.2398C58.5912 29.2398 57.7374 29.9951 57.7374 30.9911C57.7265 31.626 58.1534 32.228 59.2589 32.6002C59.8828 32.8081 60.047 32.9395 60.047 33.2131C60.047 33.4868 59.839 33.6619 59.3355 33.6619C58.843 33.6619 58.2081 33.443 57.9016 33.2569L57.6061 34.45Z" fill="white"/>
<path d="M62.8885 28.2V29.3602H62.177V30.5861H62.8885V32.7753C62.8885 33.5306 63.0417 34.045 63.3482 34.3624C63.6109 34.6361 64.0597 34.8222 64.596 34.8222C65.0667 34.8222 65.4607 34.7674 65.6796 34.6799L65.6687 33.4211C65.5483 33.443 65.3841 33.4649 65.1761 33.4649C64.6726 33.4649 64.5194 33.1693 64.5194 32.5235V30.5861H65.7125V29.3602H64.5194V27.8278L62.8885 28.2Z" fill="white"/>
<path d="M66.6778 34.7127H68.2977V31.5932C68.2977 31.4618 68.3087 31.3086 68.3634 31.1772C68.4619 30.9036 68.7137 30.5752 69.1406 30.5752C69.666 30.5752 69.9068 31.0349 69.9068 31.7136V34.7127H71.5267V31.5822C71.5267 31.4509 71.5486 31.2757 71.5924 31.1553C71.7019 30.8379 71.9755 30.5752 72.3586 30.5752C72.895 30.5752 73.1467 31.024 73.1467 31.8011V34.7127H74.7667V31.5603C74.7667 29.9622 73.9895 29.2398 72.9606 29.2398C72.5666 29.2398 72.2382 29.3274 71.9427 29.5025C71.6909 29.6557 71.4501 29.8747 71.2531 30.1483H71.2312C71.0013 29.5901 70.4541 29.2398 69.7645 29.2398C68.845 29.2398 68.3744 29.7433 68.1445 30.0826H68.1117L68.035 29.3602H66.634C66.6559 29.8309 66.6778 30.4001 66.6778 31.0678V34.7127Z" fill="white"/>
<path d="M80.8236 32.5673C80.8455 32.4469 80.8783 32.1952 80.8783 31.9106C80.8783 30.5861 80.2215 29.2398 78.4921 29.2398C76.6313 29.2398 75.7885 30.7394 75.7885 32.0967C75.7885 33.7714 76.8284 34.8222 78.6454 34.8222C79.3678 34.8222 80.0355 34.7127 80.5828 34.4938L80.3638 33.3664C79.9151 33.5087 79.4553 33.5853 78.8862 33.5853C78.109 33.5853 77.4304 33.2569 77.3756 32.5673H80.8236ZM77.3647 31.429C77.4085 30.9802 77.6931 30.3453 78.3936 30.3453C79.1598 30.3453 79.3349 31.024 79.3349 31.429H77.3647Z" fill="white"/>
<path d="M81.8779 34.7127H83.5416V31.626C83.5416 31.4727 83.5635 31.3086 83.6073 31.2101C83.7168 30.9036 83.9904 30.5861 84.4501 30.5861C85.0521 30.5861 85.293 31.0568 85.293 31.7464V34.7127H86.9567V31.5384C86.9567 29.9622 86.1358 29.2398 85.0412 29.2398C84.1546 29.2398 83.6073 29.7543 83.3884 30.0936H83.3555L83.2789 29.3602H81.8341C81.856 29.8309 81.8779 30.4001 81.8779 31.0678V34.7127Z" fill="white"/>
<path d="M88.4571 28.2V29.3602H87.7457V30.5861H88.4571V32.7753C88.4571 33.5306 88.6104 34.045 88.9169 34.3624C89.1796 34.6361 89.6283 34.8222 90.1647 34.8222C90.6354 34.8222 91.0294 34.7674 91.2483 34.6799L91.2374 33.4211C91.117 33.443 90.9528 33.4649 90.7448 33.4649C90.2413 33.4649 90.0881 33.1693 90.0881 32.5235V30.5861H91.2812V29.3602H90.0881V27.8278L88.4571 28.2Z" fill="white"/>
<path d="M41.0078 44.5785L41.5769 46.4722H43.372L41.0844 39.0947H38.8952L36.6404 46.4722H38.3698L38.8952 44.5785H41.0078ZM39.136 43.3307L39.5739 41.7655C39.6943 41.3386 39.8037 40.7804 39.9132 40.3425H39.9351C40.0445 40.7804 40.1759 41.3276 40.3072 41.7655L40.7669 43.3307H39.136Z" fill="white"/>
<path d="M49.1908 41.1197H47.5161V44.3049C47.5161 44.4363 47.5052 44.5676 47.4614 44.6661C47.3519 44.9288 47.0892 45.2462 46.6295 45.2462C46.0494 45.2462 45.7976 44.7756 45.7976 43.9984V41.1197H44.1229V44.2611C44.1229 45.9139 44.922 46.5926 46.0056 46.5926C46.9688 46.5926 47.4723 46.0453 47.6803 45.7169H47.7132L47.7898 46.4722H49.2346C49.2127 46.0234 49.1908 45.4542 49.1908 44.7537V41.1197Z" fill="white"/>
<path d="M50.7562 39.9594V41.1197H50.0447V42.3456H50.7562V44.5348C50.7562 45.29 50.9094 45.8045 51.2159 46.1219C51.4786 46.3955 51.9274 46.5816 52.4637 46.5816C52.9344 46.5816 53.3284 46.5269 53.5473 46.4393L53.5364 45.1806C53.416 45.2025 53.2518 45.2243 53.0438 45.2243C52.5403 45.2243 52.3871 44.9288 52.3871 44.283V42.3456H53.5802V41.1197H52.3871V39.5873L50.7562 39.9594Z" fill="white"/>
<path d="M54.5455 46.4722H56.2092V43.2979C56.2092 43.1775 56.2202 43.0352 56.264 42.9257C56.3844 42.6302 56.658 42.3456 57.0958 42.3456C57.7197 42.3456 57.9606 42.8272 57.9606 43.5278V46.4722H59.6243V43.3417C59.6243 41.7326 58.8143 40.9993 57.7526 40.9993C57.4461 40.9993 57.1287 41.0759 56.8879 41.2072C56.6252 41.3495 56.4062 41.5247 56.2311 41.7545H56.2092V38.7007H54.5455V46.4722Z" fill="white"/>
<path d="M63.5094 40.9993C61.7909 40.9993 60.6525 42.1048 60.6525 43.8342C60.6525 45.5637 61.8566 46.5926 63.4218 46.5926C64.8557 46.5926 66.2458 45.695 66.2458 43.7357C66.2458 42.1267 65.1513 40.9993 63.5094 40.9993ZM63.4656 42.1814C64.2209 42.1814 64.5273 42.9914 64.5273 43.7905C64.5273 44.7537 64.1114 45.3995 63.4656 45.3995C62.7541 45.3995 62.371 44.7099 62.371 43.7905C62.371 43.0024 62.6666 42.1814 63.4656 42.1814Z" fill="white"/>
<path d="M67.2764 46.4722H68.9401V43.7576C68.9401 43.6263 68.9511 43.4949 68.973 43.3855C69.0824 42.871 69.4984 42.5426 70.1113 42.5426C70.2974 42.5426 70.4397 42.5645 70.5601 42.5864V41.0212C70.4397 40.9993 70.3631 40.9993 70.2098 40.9993C69.6954 40.9993 69.0386 41.3276 68.765 42.1048H68.7212L68.6665 41.1197H67.2326C67.2545 41.5794 67.2764 42.0939 67.2764 42.882V46.4722Z" fill="white"/>
<path d="M73.0982 46.4722V41.1197H71.4345V46.4722H73.0982ZM72.2664 38.7882C71.73 38.7882 71.3797 39.1494 71.3907 39.6311C71.3797 40.0908 71.73 40.4629 72.2554 40.4629C72.8027 40.4629 73.153 40.0908 73.153 39.6311C73.142 39.1494 72.8027 38.7882 72.2664 38.7882Z" fill="white"/>
<path d="M74.668 39.9594V41.1197H73.9565V42.3456H74.668V44.5348C74.668 45.29 74.8213 45.8045 75.1277 46.1219C75.3904 46.3955 75.8392 46.5816 76.3756 46.5816C76.8462 46.5816 77.2403 46.5269 77.4592 46.4393L77.4482 45.1806C77.3278 45.2025 77.1637 45.2243 76.9557 45.2243C76.4522 45.2243 76.2989 44.9288 76.2989 44.283V42.3456H77.492V41.1197H76.2989V39.5873L74.668 39.9594Z" fill="white"/>
<path d="M77.9087 41.1197L79.868 46.0124C79.9337 46.1438 79.9447 46.2314 79.9447 46.2861C79.9447 46.3627 79.9118 46.4503 79.8571 46.5269C79.6929 46.8005 79.4193 47.0632 79.1675 47.1946C78.9158 47.3478 78.6531 47.4463 78.4451 47.4792L78.7953 48.8912C79.2113 48.8365 79.8243 48.6613 80.4044 48.1578C81.0064 47.6215 81.5209 46.7677 82.2871 44.6442L83.5349 41.1197H81.7507L81.094 43.7467C81.0173 44.0531 80.9298 44.4581 80.8532 44.7427H80.8203C80.7546 44.4581 80.6452 44.0641 80.5576 43.7467L79.7586 41.1197H77.9087Z" fill="white"/>
<path fill-rule="evenodd" clip-rule="evenodd" d="M1.55261 37.5308C3.22175 37.151 7.78596 37.7937 12.6898 43.4024C16.1457 47.3552 17.7178 50.0021 18.3247 51.4967H17.2981L17.0497 50.9392C15.3805 50.9538 11.4983 50.1767 9.32272 46.9517C8.7882 46.1594 8.28703 45.3806 7.8025 44.6276L7.8025 44.6276C5.82182 41.5497 4.11914 38.9038 1.55261 37.5308ZM20.5069 51.4967C20.7019 50.9788 21.2481 50.2554 22.4887 49.7999C22.9543 49.6289 23.42 49.4949 23.8861 49.3607C25.4511 48.9102 27.022 48.4581 28.6185 46.6012C29.0278 46.1251 29.4186 45.6199 29.8151 45.1073L29.8152 45.1073C31.426 43.025 33.1319 40.8198 36.5612 39.9408C34.1007 39.2835 28.1264 39.152 23.9132 43.8844C22.9161 45.0181 20.7765 48.097 19.7759 51.4967H20.5069Z" fill="white"/>
</svg>
